<svg width="1440" height="840" viewBox="0 0 1440 840" fill="none" xmlns="http://www.w3.org/2000/svg">
<rect width="1440" height="840" fill="white"/>
<mask id="mask0_0_119" style="mask-type:alpha" maskUnits="userSpaceOnUse" x="0" y="0" width="1440" height="840">
<rect width="1440" height="840" fill="white"/>
</mask>
<g mask="url(#mask0_0_119)">
<path opacity="0.197568" fill-rule="evenodd" clip-rule="evenodd" d="M719.594 725.211C779.799 607.053 654.813 377.397 510.249 332.101C365.686 286.806 155.054 386.019 94.8486 504.177C34.6437 622.336 189.966 717.901 305.672 776.856C421.379 835.812 659.39 843.37 719.594 725.211Z" fill="#96D5F0"/>
<path fill-rule="evenodd" clip-rule="evenodd" d="M830 326.814C830 566.5 456.183 833.786 197.229 788.109C-61.7257 742.432 -309 409.823 -309 170.136C-309 -69.5501 6.13837 -96 231.269 -96C456.4 -96 830 87.1273 830 326.814Z" fill="#96D5F0"/>
<path opacity="0.197568" fill-rule="evenodd" clip-rule="evenodd" d="M673 -134.595C673 13.0244 913.24 177.641 1079.66 149.51C1246.08 121.378 1405 -83.471 1405 -231.09C1405 -378.71 1202.47 -395 1057.79 -395C913.101 -395 673 -282.215 673 -134.595Z" fill="#96D5F0"/>
<path fill-rule="evenodd" clip-rule="evenodd" d="M1258 255.113C1258 143.707 1359.08 77 1470.53 77C1581.98 77 1726 125.514 1726 236.921C1726 348.327 1590.57 474 1479.12 474C1367.67 474 1258 366.52 1258 255.113Z" fill="#96D5F0"/>
<path opacity="0.551921" fill-rule="evenodd" clip-rule="evenodd" d="M1291.66 512.17C1267.96 377.735 1119.19 346.499 1003.06 366.975C886.942 387.45 777.221 577.668 800.925 712.103C824.63 846.538 986.697 824.772 1102.82 804.297C1218.94 783.821 1315.37 646.605 1291.66 512.17Z" fill="#FFE749"/>
</g>
</svg>
