<svg width="320" height="840" viewBox="0 0 320 840" fill="none" xmlns="http://www.w3.org/2000/svg">
<rect x="0.122559" y="-0.323486" width="320" height="840" fill="white"/>
<mask id="mask0_0_383" style="mask-type:alpha" maskUnits="userSpaceOnUse" x="0" y="-1" width="321" height="841">
<rect x="0.122559" y="-0.323486" width="320" height="840" fill="white"/>
</mask>
<g mask="url(#mask0_0_383)">
<rect x="0.122559" y="-0.323486" width="320" height="309" fill="#96D5F0"/>
<path fill-rule="evenodd" clip-rule="evenodd" d="M-63.8774 188.79C-63.8774 77.3834 37.2044 10.6765 148.655 10.6765C260.104 10.6765 404.123 59.1904 404.123 170.597C404.123 282.004 268.692 407.677 157.242 407.677C45.7914 407.677 -63.8774 300.197 -63.8774 188.79Z" fill="#96D5F0"/>
<path opacity="0.197568" fill-rule="evenodd" clip-rule="evenodd" d="M265.717 395.888C325.922 277.729 200.935 48.0732 56.3719 2.77776C-88.1915 -42.5176 -298.824 56.6951 -359.029 174.854C-419.234 293.013 -263.911 388.578 -148.205 447.533C-32.4986 506.488 205.512 514.047 265.717 395.888Z" fill="#96D5F0"/>
<path opacity="0.551921" fill-rule="evenodd" clip-rule="evenodd" d="M288.982 641.402C276.177 568.783 195.765 551.919 132.996 562.987C70.2265 574.055 10.9069 676.815 23.7115 749.434C36.5163 822.053 124.12 810.286 186.889 799.218C249.658 788.15 301.787 714.021 288.982 641.402Z" fill="#FFE749"/>
</g>
</svg>
